<svg width="35" height="35" viewBox="0 0 35 35" fill="none" xmlns="http://www.w3.org/2000/svg">
<g clip-path="url(#clip0_292_748)">
<path d="M5.81867 14.1642C5.69391 14.0639 5.59067 13.9394 5.51514 13.7983C5.4396 13.6571 5.39331 13.5022 5.37904 13.3427C5.36477 13.1833 5.38282 13.0226 5.43209 12.8703C5.48137 12.718 5.56087 12.5772 5.66584 12.4563L7.99425 9.68898C8.16711 9.47407 8.39878 9.34314 8.64166 9.28781L18.8824 5.69484C19.098 5.58562 19.3486 5.55618 19.5985 5.60025C19.8484 5.64431 20.0738 5.75767 20.239 5.93404L28.7082 12.8752C28.9133 13.034 29.0701 13.258 29.1352 13.5149L30.3319 16.8179C30.5644 17.4478 30.2341 18.138 29.6182 18.3607L28.3065 18.841L27.2658 24.7433C27.186 25.1955 26.8669 25.5441 26.4504 25.6793L16.118 29.3052C15.9024 29.4144 15.6519 29.4438 15.402 29.3998C15.1521 29.3557 14.9267 29.2423 14.7614 29.066L6.29225 22.1249C6.11916 21.991 5.98606 21.8122 5.90742 21.608C5.82878 21.4038 5.80761 21.1819 5.84621 20.9665L7.00864 14.374C6.61598 14.5134 6.16169 14.4455 5.81867 14.1642ZM19.1473 8.15869L17.7415 16.1315L25.5367 13.3957L19.1473 8.15869ZM8.34996 20.684L14.7806 25.9651L16.1885 17.9804L9.75579 12.7112L8.34996 20.684ZM25.0096 23.6216L25.6853 19.7899L19.1269 22.1917C18.6964 22.3366 18.2582 22.2471 17.9348 21.9937L17.1606 26.3848L25.0096 23.6216ZM19.4163 19.5066L27.651 16.5046L27.1728 15.1811L18.938 18.183L19.4163 19.5066Z" fill="#272727" fill-opacity="0.78"/>
</g>
<defs>
<clipPath id="clip0_292_748">
<rect width="29" height="29" fill="white" transform="translate(5.73828 0.702393) rotate(10)"/>
</clipPath>
</defs>
</svg>
