<svg width="35" height="35" viewBox="0 0 35 35" fill="none" xmlns="http://www.w3.org/2000/svg">
<path d="M13.0218 28.9801C12.7062 28.9245 12.4256 28.7457 12.2418 28.4832C12.058 28.2207 11.986 27.8959 12.0416 27.5803L14.1399 15.6806C14.5595 13.3006 16.1167 11.428 17.3591 11.3403L18.3034 5.9854C18.3312 5.8276 18.4206 5.68732 18.5518 5.59541C18.6831 5.5035 18.8455 5.4675 19.0033 5.49533L20.1932 5.70515C20.351 5.73298 20.4913 5.82235 20.5832 5.9536C20.6751 6.08486 20.7111 6.24725 20.6833 6.40505L19.7391 11.7599C20.8766 12.2673 21.6994 14.5595 21.2798 16.9395L19.1815 28.8393C19.1259 29.1549 18.9471 29.4354 18.6846 29.6192C18.4221 29.8031 18.0973 29.8751 17.7817 29.8194L13.0218 28.9801Z" fill="#272727" fill-opacity="0.78"/>
</svg>
